<svg xmlns="http://www.w3.org/2000/svg" version="1.1" xmlns:xlink="http://www.w3.org/1999/xlink" xmlns:svgjs="http://svgjs.com/svgjs" width="1440" height="560" preserveAspectRatio="none" viewBox="0 0 1440 560"><g mask="url(&quot;#SvgjsMask2048&quot;)" fill="none"><rect width="1440" height="560" x="0" y="0" fill="url(#SvgjsRadialGradient2049)"></rect><path d="M688 408L687 182" stroke-width="8" stroke="url(#SvgjsLinearGradient2050)" stroke-linecap="round" class="Down"></path><path d="M985 12L984 -245" stroke-width="6" stroke="url(#SvgjsLinearGradient2051)" stroke-linecap="round" class="Up"></path><path d="M893 325L892 509" stroke-width="10" stroke="url(#SvgjsLinearGradient2050)" stroke-linecap="round" class="Down"></path><path d="M1291 307L1290 38" stroke-width="8" stroke="url(#SvgjsLinearGradient2051)" stroke-linecap="round" class="Up"></path><path d="M1143 28L1142 -192" stroke-width="10" stroke="url(#SvgjsLinearGradient2051)" stroke-linecap="round" class="Up"></path><path d="M1210 433L1209 135" stroke-width="8" stroke="url(#SvgjsLinearGradient2050)" stroke-linecap="round" class="Down"></path><path d="M1422 231L1421 -63" stroke-width="6" stroke="url(#SvgjsLinearGradient2051)" stroke-linecap="round" class="Up"></path><path d="M1120 440L1119 41" stroke-width="6" stroke="url(#SvgjsLinearGradient2050)" stroke-linecap="round" class="Down"></path><path d="M27 343L26 573" stroke-width="8" stroke="url(#SvgjsLinearGradient2051)" stroke-linecap="round" class="Up"></path><path d="M744 53L743 405" stroke-width="8" stroke="url(#SvgjsLinearGradient2050)" stroke-linecap="round" class="Down"></path><path d="M1036 119L1035 413" stroke-width="10" stroke="url(#SvgjsLinearGradient2050)" stroke-linecap="round" class="Down"></path><path d="M489 88L488 -238" stroke-width="10" stroke="url(#SvgjsLinearGradient2050)" stroke-linecap="round" class="Down"></path><path d="M149 159L148 -72" stroke-width="10" stroke="url(#SvgjsLinearGradient2050)" stroke-linecap="round" class="Down"></path><path d="M789 336L788 172" stroke-width="6" stroke="url(#SvgjsLinearGradient2050)" stroke-linecap="round" class="Down"></path><path d="M1282 101L1281 429" stroke-width="10" stroke="url(#SvgjsLinearGradient2051)" stroke-linecap="round" class="Up"></path><path d="M1192 117L1191 -84" stroke-width="10" stroke="url(#SvgjsLinearGradient2050)" stroke-linecap="round" class="Down"></path><path d="M137 291L136 21" stroke-width="8" stroke="url(#SvgjsLinearGradient2051)" stroke-linecap="round" class="Up"></path><path d="M400 41L399 371" stroke-width="8" stroke="url(#SvgjsLinearGradient2050)" stroke-linecap="round" class="Down"></path><path d="M293 67L292 336" stroke-width="10" stroke="url(#SvgjsLinearGradient2050)" stroke-linecap="round" class="Down"></path><path d="M23 83L22 -58" stroke-width="6" stroke="url(#SvgjsLinearGradient2051)" stroke-linecap="round" class="Up"></path><path d="M1259 8L1258 -149" stroke-width="8" stroke="url(#SvgjsLinearGradient2050)" stroke-linecap="round" class="Down"></path><path d="M960 171L959 558" stroke-width="6" stroke="url(#SvgjsLinearGradient2051)" stroke-linecap="round" class="Up"></path><path d="M157 187L156 -13" stroke-width="6" stroke="url(#SvgjsLinearGradient2051)" stroke-linecap="round" class="Up"></path><path d="M701 339L700 558" stroke-width="6" stroke="url(#SvgjsLinearGradient2050)" stroke-linecap="round" class="Down"></path><path d="M1230 8L1229 -241" stroke-width="8" stroke="url(#SvgjsLinearGradient2051)" stroke-linecap="round" class="Up"></path><path d="M116 275L115 31" stroke-width="8" stroke="url(#SvgjsLinearGradient2051)" stroke-linecap="round" class="Up"></path><path d="M1004 529L1003 187" stroke-width="6" stroke="url(#SvgjsLinearGradient2051)" stroke-linecap="round" class="Up"></path><path d="M962 526L961 727" stroke-width="10" stroke="url(#SvgjsLinearGradient2051)" stroke-linecap="round" class="Up"></path><path d="M266 53L265 281" stroke-width="8" stroke="url(#SvgjsLinearGradient2050)" stroke-linecap="round" class="Down"></path><path d="M173 207L172 391" stroke-width="6" stroke="url(#SvgjsLinearGradient2050)" stroke-linecap="round" class="Down"></path><path d="M521 489L520 650" stroke-width="8" stroke="url(#SvgjsLinearGradient2051)" stroke-linecap="round" class="Up"></path><path d="M4 345L3 4" stroke-width="8" stroke="url(#SvgjsLinearGradient2051)" stroke-linecap="round" class="Up"></path><path d="M1225 440L1224 284" stroke-width="10" stroke="url(#SvgjsLinearGradient2051)" stroke-linecap="round" class="Up"></path><path d="M665 445L664 840" stroke-width="8" stroke="url(#SvgjsLinearGradient2050)" stroke-linecap="round" class="Down"></path><path d="M1160 535L1159 730" stroke-width="10" stroke="url(#SvgjsLinearGradient2050)" stroke-linecap="round" class="Down"></path><path d="M386 366L385 545" stroke-width="10" stroke="url(#SvgjsLinearGradient2051)" stroke-linecap="round" class="Up"></path></g><defs><mask id="SvgjsMask2048"><rect width="1440" height="560" fill="#ffffff"></rect></mask><radialGradient cx="100%" cy="100%" r="1545.06" gradientUnits="userSpaceOnUse" id="SvgjsRadialGradient2049"><stop stop-color="rgba(140, 140, 140, 1)" offset="0"></stop><stop stop-color="rgba(39, 39, 39, 1)" offset="1"></stop></radialGradient><linearGradient x1="0%" y1="0%" x2="0%" y2="100%" id="SvgjsLinearGradient2050"><stop stop-color="rgba(121, 131, 143, 0)" offset="0"></stop><stop stop-color="rgba(121, 131, 143, 1)" offset="1"></stop></linearGradient><linearGradient x1="0%" y1="100%" x2="0%" y2="0%" id="SvgjsLinearGradient2051"><stop stop-color="rgba(121, 131, 143, 0)" offset="0"></stop><stop stop-color="rgba(121, 131, 143, 1)" offset="1"></stop></linearGradient></defs></svg>